<?xml version="1.0" encoding="UTF-8" standalone="no"?>
<svg
   width="1839"
   height="2500"
   viewBox="0 0 256 348"
   preserveAspectRatio="xMinYMin meet"
   version="1.1"
   id="svg40"
   sodipodi:docname="gopher.svg"
   inkscape:version="1.1.1 (3bf5ae0d25, 2021-09-20)"
   xmlns:inkscape="http://www.inkscape.org/namespaces/inkscape"
   xmlns:sodipodi="http://sodipodi.sourceforge.net/DTD/sodipodi-0.dtd"
   xmlns="http://www.w3.org/2000/svg"
   xmlns:svg="http://www.w3.org/2000/svg">
  <defs
     id="defs44" />
  <sodipodi:namedview
     id="namedview42"
     pagecolor="#ffffff"
     bordercolor="#666666"
     borderopacity="1.0"
     inkscape:pageshadow="2"
     inkscape:pageopacity="0.0"
     inkscape:pagecheckerboard="0"
     showgrid="false"
     inkscape:zoom="0.3328"
     inkscape:cx="920.97356"
     inkscape:cy="1251.5024"
     inkscape:window-width="1920"
     inkscape:window-height="1017"
     inkscape:window-x="1912"
     inkscape:window-y="-8"
     inkscape:window-maximized="1"
     inkscape:current-layer="svg40" />
  <path
     d="m 10.865877,187.33488 c 0.469203,9.66671 10.135921,5.16217 14.452968,2.15852 4.129554,-2.90944 5.349671,-0.4692 5.724657,-6.10059 0.281711,-3.75362 0.656696,-7.41397 0.469203,-11.1676 -6.288077,-0.56342 -13.045358,0.93841 -18.207537,4.69203 -2.721002,1.87682 -7.6014698,8.07162 -2.440234,10.41764 M 203.54166,306.14977 c 7.41398,4.59876 21.02276,18.48925 9.85421,25.24653 -10.69934,9.76094 -16.70477,-10.79356 -26.09072,-13.60878 4.03534,-5.53716 9.1033,-10.60512 16.23651,-11.63775 z M 70.836275,321.82286 c -8.728312,1.31433 -13.60878,9.19751 -20.92854,13.23379 -6.851498,4.03534 -9.479225,-1.31433 -10.042646,-2.44023 -1.031682,-0.46921 -0.938406,0.4692 -2.627727,-1.22012 -6.381353,-10.04265 6.569788,-17.36241 13.327069,-22.33709 9.385008,-1.87681 15.2981,6.28808 20.271844,12.76365 z M 244.74204,186.11476 c -0.4692,9.66672 -10.13592,5.16218 -14.45297,2.15852 -4.12955,-2.90944 -5.34967,-0.4692 -5.72465,-6.10058 -0.28265,-3.75363 -0.65764,-7.41398 -0.46921,-11.16761 6.28714,-0.56342 13.04442,0.93841 18.2066,4.69204 2.62867,1.87681 7.60241,8.07161 2.44023,10.41763"
     fill="#f6d2a2"
     id="path2"
     style="stroke-width:0.942175" />
  <path
     d="M 219.12053,68.238268 C 252.62522,56.413026 226.44123,10.520611 197.25264,30.791512 178.10764,14.367513 151.73615,11.363858 124.04939,11.363858 96.927934,13.524266 71.117985,18.498009 53.098883,34.26437 24.003568,15.493412 -2.8371206,60.541638 31.32427,71.898619 c -9.5725,37.164101 1.313393,75.080061 -0.188435,112.901801 -1.40761,33.97484 -10.323414,79.49133 8.540819,109.99331 16.049014,26.09072 50.58539,35.38245 79.023066,36.41508 36.31991,1.31339 80.33552,-7.60241 97.97963,-42.79643 16.89321,-33.50469 12.20117,-75.2685 10.04265,-111.40092 -2.15852,-36.50835 1.87681,-73.57918 -7.60241,-108.774134 z"
     fill="#69d7e2"
     id="path4"
     style="stroke-width:0.942175" />
  <path
     d="m 247.27555,180.3901 c -0.9384,-1.97103 -2.721,-4.22377 -4.41032,-5.44389 -4.31705,-3.09693 -9.85515,-4.78625 -15.57981,-4.97374 -0.18749,-5.81888 -0.37499,-12.20117 -0.37499,-20.27184 v -7.32071 c -0.0942,-23.08706 -0.37592,-33.22298 -1.68932,-45.893353 -1.03262,-9.947486 -2.62866,-19.145001 -4.88046,-27.779096 7.60241,-2.909437 12.57615,-7.695687 14.54718,-13.89049 1.87682,-5.724657 0.93841,-12.200227 -2.2518,-17.924884 -3.28536,-5.631382 -8.54082,-9.855153 -14.6414,-11.543531 -6.56979,-1.783538 -13.70206,-0.469204 -20.55355,4.128612 -6.10059,-5.161237 -13.13864,-9.103298 -21.02276,-12.106953 -13.98377,-5.160294 -30.21933,-7.131324 -52.27471,-7.131324 v 0.938406 l -0.0942,-0.938406 c -23.55626,1.876813 -41.012888,5.537164 -55.465856,12.576155 -5.818875,2.81522 -10.980111,6.19386 -15.484651,10.135922 -6.945716,-4.317047 -14.1722,-5.349671 -20.835264,-3.284423 -6.19386,1.876813 -11.543531,6.288078 -14.734679,12.012734 -3.191148,5.724657 -3.942061,12.294446 -1.783538,17.925827 2.158524,5.63044 7.132267,10.041704 14.547186,12.763649 -2.346016,9.478283 -3.566133,19.520929 -3.753626,30.595255 -0.188435,10.79262 0.280768,19.42766 1.970089,38.94764 1.220117,14.54719 1.68932,21.21025 1.877755,29.28187 -6.382295,-0.28171 -12.763648,1.40761 -17.550841,4.88047 -1.68932,1.22011 -3.5661334,3.37864 -4.4103224,5.44294 -1.220117,2.62867 -0.7509137,4.97469 1.6893204,6.3823 0.374986,4.50454 2.909437,6.56884 6.757281,6.19386 2.81522,-0.28171 6.19386,-1.78354 9.103297,-3.84785 a 10.5599,10.5599 0 0 1 1.971031,-1.12589 c 0.28171,-0.0942 0.469203,-0.18844 0.750914,-0.28266 0,0 0.562478,-0.18655 0.750913,-0.28077 0.280769,-0.0942 0.562479,-0.18843 0.749972,-0.37592 -0.187493,4.41126 -0.562479,9.01002 -1.40761,19.52187 -0.938407,11.8243 -1.40761,18.30081 -1.595103,25.52729 -0.845131,26.84069 2.346017,46.36162 11.918517,61.84722 3.003655,4.88046 6.664006,9.19751 10.981053,13.13957 -0.845131,0.56248 -4.411264,3.19115 -5.537164,4.03534 -3.942061,3.00365 -6.663063,5.53716 -8.259108,8.35238 -2.064306,3.66035 -2.064306,7.3207 0.28171,11.16855 l 0.09422,0.0942 0.09422,0.0942 c 1.031682,1.03169 1.595103,1.3134 2.346017,1.3134 h 0.279826 c 0.09422,0.18843 0.188435,0.28171 0.282652,0.4692 0.280768,0.4692 0.562479,0.84419 0.844189,1.22012 2.346017,2.72194 5.63044,3.37864 10.041704,0.75091 2.346017,-1.22012 4.035337,-2.62867 7.60147,-5.63138 l 0.188435,-0.18844 c 5.724657,-4.87952 8.539877,-6.66212 12.763649,-7.31976 L 72.61887,322.293 c 0.562479,0.28266 1.1259,0.47015 1.782596,0.75092 13.327069,5.34967 28.811724,8.25911 44.485744,8.82253 20.27185,0.75091 39.79278,-1.78354 56.31005,-7.78991 4.41127,-1.5951 8.54082,-3.47286 12.48288,-5.53716 2.44023,0.9384 4.5036,2.90943 8.4466,7.50819 0.18749,0.18844 0.18749,0.18844 0.28077,0.37499 0.18844,0.18843 0.18844,0.28265 0.28265,0.37593 0.18655,0.28171 0.46826,0.4692 0.65576,0.75091 3.09787,3.65941 5.16312,5.44295 7.50913,6.47557 3.09599,1.31339 6.09965,0.6567 9.19658,-2.15852 5.44389,-3.37864 5.81887,-8.6341 2.2518,-14.64141 -2.53351,-4.22283 -6.94384,-8.63409 -11.07339,-11.44931 4.88047,-4.78625 9.1033,-10.51091 12.38772,-16.98742 9.01002,-18.0191 12.48288,-39.04186 12.29539,-66.07098 -0.0942,-9.57251 -0.47015,-17.92489 -1.50183,-33.88063 v -0.46826 c 0.4692,0.18749 0.93841,0.4692 1.40761,0.84419 2.90944,1.97103 6.28808,3.56613 9.1033,3.84784 3.84784,0.37593 6.38229,-1.68932 6.75728,-6.19386 2.34601,-1.50182 2.81522,-3.84784 1.5951,-6.47557 z M 217.43215,27.318654 c 5.63138,1.501827 10.51185,5.443889 13.51456,10.699342 3.00366,5.255454 3.84785,11.168546 2.15853,16.424 -1.7826,5.537164 -6.28808,9.948428 -13.32707,12.576155 a 152.67008,152.67008 0 0 0 -4.97375,-14.828896 c 2.72195,-2.346017 4.03534,-5.255454 1.87682,-9.384066 -2.15758,-4.130496 -5.91215,-4.5997 -9.76094,-3.379583 -2.44023,-3.191147 -5.16123,-6.006367 -7.97645,-8.634094 6.19386,-3.942061 12.57615,-5.067961 18.4883,-3.472858 z M 17.342389,59.040753 c -1.97103,-5.068903 -1.314334,-11.074328 1.689321,-16.329782 3.002712,-5.256395 7.88318,-9.385007 13.702055,-11.074328 6.006367,-1.783538 12.481937,-0.939348 18.864233,2.81522 a 61.751109,61.751109 0 0 0 -9.760936,11.168546 c -4.880468,-2.534452 -9.854211,-3.003655 -12.669431,2.157581 -2.909437,5.538106 0.469203,9.010022 5.255454,11.637749 -0.656696,1.596045 -1.314335,3.285365 -1.876813,4.974685 -0.657639,2.064306 -1.314335,4.22283 -1.876813,6.381353 C 23.81796,68.144051 19.31342,64.108714 17.342389,59.040753 Z M 28.698428,186.95989 c -0.09422,0 -0.657638,0.18749 -0.657638,0.28077 -0.280769,0.0942 -0.562479,0.18843 -0.84419,0.37593 -0.750913,0.28171 -1.501827,0.75091 -2.251798,1.31339 -2.628669,1.87775 -5.819817,3.28536 -8.260051,3.47286 -2.81522,0.28171 -4.410322,-0.93841 -4.692033,-4.31705 1.971031,-0.6567 2.81522,-1.1259 3.566134,-2.2518 l -1.501828,-1.12684 c -0.562478,0.75091 -1.125899,1.03262 -2.81522,1.5951 -0.09422,0 -0.09422,0 -0.188435,0.0942 -1.5008848,-0.84513 -1.7825952,-2.15852 -0.937464,-4.03534 0.750914,-1.68932 2.440234,-3.66035 3.847844,-4.69203 4.50454,-3.28537 10.510907,-4.88047 16.517274,-4.50548 0,2.34601 0.09422,4.69203 0,6.94383 0,0.28265 0,0.47014 -0.09422,0.75185 -0.09327,1.3134 -0.09327,1.87682 -0.187493,2.53446 -0.280768,2.721 -0.469203,3.09598 -1.500885,3.56613 z m 28.342516,141.62025 -0.188435,0.18843 c -3.471916,3.00272 -5.161236,4.22283 -7.319759,5.44295 -3.566134,2.15852 -6.006368,1.68932 -7.695688,-0.37499 -0.28171,-0.28265 -0.469203,-0.65763 -0.656696,-0.93934 -0.09422,-0.0942 -0.188435,-0.28077 -0.281711,-0.37499 v -0.0942 c 0.188435,-1.68932 0.845132,-2.90943 2.534452,-5.53716 0.09422,-0.0942 0.09422,-0.0942 0.09422,-0.18749 1.031682,-1.50183 1.500886,-2.34602 1.970089,-3.37865 l -1.68932,-0.75091 c -0.374986,0.84513 -0.844189,1.59605 -1.783538,3.09693 -0.09422,0.0942 -0.09422,0.0942 -0.09422,0.18844 -1.688378,2.44023 -2.440234,3.94112 -2.815219,5.63044 H 39.0209 38.73919 c -0.188435,-0.0942 -0.469204,-0.28171 -0.844189,-0.6567 -3.660351,-5.81887 -0.750914,-10.79262 7.507252,-16.98742 1.032624,-0.74997 4.505482,-3.19021 5.443889,-3.94112 0.188435,0 0.374986,-0.0942 0.563421,-0.18843 5.067018,4.31798 10.98011,8.07161 17.549898,11.16854 0,0.0942 0.09422,0.18844 0.187493,0.28265 -3.847843,0.93747 -6.851498,2.9085 -12.106952,7.41304 z m 157.575986,-10.2292 c 2.90944,4.88047 2.81522,8.82159 -0.84513,11.54353 -0.28077,-0.56342 -0.4692,-1.22011 -0.84419,-2.15852 0,-0.0942 0,-0.0942 -0.0942,-0.18844 -1.31339,-3.56613 -2.15758,-5.06701 -3.75362,-6.75633 l -1.31434,1.31339 c 1.40761,1.31433 2.06525,2.72194 3.37864,6.00637 0,0.0942 0,0.0942 0.0942,0.18843 0.4692,1.21918 0.75091,1.97009 1.03263,2.62773 -2.44024,2.0643 -4.59876,2.44023 -6.8515,1.40761 -1.97103,-0.84513 -3.84785,-2.62867 -6.8515,-6.00637 -0.18749,-0.18844 -0.37499,-0.4692 -0.56248,-0.75091 -0.0942,-0.0942 -0.18844,-0.18844 -0.28265,-0.37593 -0.18655,-0.18749 -0.18655,-0.18749 -0.28077,-0.37499 -3.47286,-4.03533 -5.53717,-6.19386 -7.78991,-7.41492 5.2564,-3.00271 9.94937,-6.38135 14.1722,-10.32341 3.94112,2.90944 8.35239,7.22648 10.79262,11.26276 z m 1.31339,-30.40776 c -8.07067,16.2365 -22.33615,27.68582 -41.48209,34.63059 -16.32978,5.91309 -35.66322,8.35333 -55.65335,7.60241 -34.443101,-1.22011 -64.287445,-13.23285 -78.27121,-35.94493 -9.385008,-15.1106 -12.48288,-34.34982 -11.637749,-60.81552 0.28171,-7.22649 0.656696,-13.70206 1.595102,-25.5273 1.032625,-13.32707 1.314335,-17.17491 1.596045,-23.18128 0.187493,-4.31705 0.187493,-8.72831 0.09422,-13.42035 C 31.982853,163.0277 31.51365,156.45791 30.293533,141.72323 28.60421,122.2023 28.135007,113.66148 28.3225,102.96214 28.605153,88.886039 30.481023,76.496434 34.423085,64.766352 40.802554,45.712742 52.535462,32.854876 69.428665,24.503434 83.599923,17.559603 100.77484,13.992527 124.14361,12.114772 c 21.86789,0 37.82174,1.97103 51.61801,7.038991 16.51728,6.100585 28.81172,16.798985 37.25832,33.223927 5.44389,13.326127 8.63504,27.68582 10.32436,44.203095 1.31339,12.576155 1.5951,22.712075 1.68932,45.704925 v 7.3207 c 0.0942,11.35604 0.28077,19.33344 0.75091,27.31083 0.1875,3.09693 0.28077,4.41127 0.74998,11.82525 1.03262,15.95479 1.40855,24.2139 1.50182,33.7864 0.18844,26.93491 -3.19114,47.67595 -12.10695,65.41429 z m 28.71845,-102.76683 c -0.0942,0 -0.18749,-0.0942 -0.28077,-0.0942 -1.68932,-0.56247 -2.25274,-0.9384 -2.81616,-1.5951 l -1.50183,1.1259 c 0.84513,1.12684 1.68932,1.59605 3.56708,2.2518 -0.37593,3.37958 -1.97103,4.5997 -4.69204,4.31799 -2.44023,-0.18844 -5.63232,-1.68932 -8.26005,-3.47286 -0.75091,-0.56248 -1.50088,-0.93841 -2.2518,-1.31339 -0.0942,0 -0.18843,-0.0942 -0.28265,-0.0942 -0.37498,-5.16124 -0.37498,-6.47557 -0.56248,-9.19751 l -0.28171,-5.06796 c 5.2564,0.0942 10.41763,1.68932 14.35875,4.59875 1.40856,1.03263 3.09788,3.00366 3.84879,4.69204 0.93841,1.59604 0.75091,3.00365 -0.84513,3.84878 z"
     id="path6"
     style="stroke-width:0.942175" />
  <path
     d="m 138.27812,108.15258 c 0.0942,4.78625 1.03263,10.04171 0.1875,15.10967 -1.31434,2.44023 -3.75363,2.72288 -5.91215,3.66035 -3.00366,-0.46921 -5.53811,-2.44024 -6.75729,-5.25546 -0.75091,-5.72465 0.1875,-11.16854 0.46921,-16.8932 0,-0.18843 3.56613,0.0942 6.75728,1.03262 2.721,0.84419 5.25545,2.2518 5.25545,2.34602 z m -26.55992,0.37499 c -2.62867,9.94937 3.47286,26.18493 13.51456,12.85786 -0.75091,-5.63138 0.0942,-11.07433 0.37499,-16.61149 0.0942,-0.4692 -13.79533,3.09693 -13.88955,3.75363 z"
     fill="#ffffff"
     id="path8"
     style="stroke-width:0.942175" />
  <path
     d="m 139.40402,112.56385 c -0.18843,-2.81617 -0.28171,-3.94207 -0.28171,-5.34968 v -0.65669 l -0.65669,-0.18844 -11.82525,-3.65941 V 102.052 l -1.22011,0.28265 h -0.0942 v 0.0933 l -13.32613,3.37864 -0.4692,0.0942 -0.18844,0.46826 c -2.0643,4.97469 -1.5951,12.48288 1.03263,17.08164 3.00365,5.25545 7.88318,5.34873 12.85786,-0.65764 a 9.6026503,9.6026503 0 0 0 7.03805,5.06891 h 0.28266 l 0.28076,-0.0942 c 0.37593,-0.18844 0.75092,-0.28265 1.40856,-0.56342 0.0942,0 0.0942,0 0.18749,-0.0942 2.721,-0.93841 3.84784,-1.68932 4.78625,-3.47192 l 0.0942,-0.0942 v -0.1875 c 0.28076,-1.68932 0.37498,-3.47285 0.37498,-5.44294 0,-1.40856 -0.0942,-2.72289 -0.28171,-5.34967 z m -15.01639,-3.47286 c -0.0942,1.68932 -0.18749,2.34601 -0.28077,3.28442 -0.18843,3.47286 -0.18843,6.10059 0.0942,8.72831 -4.4122,5.63138 -7.88412,5.63138 -10.23014,1.40761 -2.25274,-3.94112 -2.72288,-10.60512 -1.03262,-15.01544 l 11.8243,-3.00366 c -0.0933,1.22012 -0.18655,2.44023 -0.37499,4.59876 z m 13.13958,13.89049 c -0.6567,1.1259 -1.50183,1.68932 -3.75457,2.44023 -0.0942,0 -0.0942,0 -0.18749,0.0933 -0.56248,0.18843 -0.93841,0.37498 -1.22012,0.4692 -2.53445,-0.4692 -4.69203,-2.15852 -5.72466,-4.50454 -0.28171,-2.53445 -0.28171,-5.16218 -0.0942,-8.63409 0.0942,-0.93935 0.0942,-1.59605 0.28265,-3.28537 0.18655,-2.15758 0.28077,-3.47191 0.28077,-4.69203 l 10.23014,3.09693 c 0,1.22012 0.0942,2.34601 0.28171,4.78625 0.18749,2.53445 0.28076,3.84784 0.28076,5.34967 0,1.7826 -0.0942,3.37864 -0.37498,4.88047 z"
     id="path10"
     style="stroke-width:0.942175" />
  <g
     transform="matrix(0.94217527,0,0,0.94217527,53.065907,30.755709)"
     id="g20">
    <path
       d="m 2.291,38.749 c 9.164,35.66 66.241,26.496 64.05,-9.264 C 63.75,-13.348 -6.475,-5.08 2.29,38.749"
       fill="#ffffff"
       id="path12" />
    <path
       d="M 67.337,29.385 C 66.739,19.025 62.157,10.957 54.587,5.877 47.813,1.295 38.848,-0.498 29.983,0.597 21.118,1.794 12.949,5.778 7.57,12.054 1.594,19.026 -0.697,28.19 1.395,38.749 l 0.896,-0.2 -0.896,0.2 C 10.758,75.405 69.528,66.54 67.337,29.385 Z M 3.187,38.55 C 1.195,28.49 3.387,19.923 8.965,13.448 14.045,7.571 21.715,3.687 30.182,2.591 c 8.467,-1.096 16.934,0.598 23.31,4.98 7.071,4.782 11.355,12.253 11.952,22.114 2.092,34.764 -53.391,43.132 -62.256,8.865 z"
       id="path14" />
    <ellipse
       cx="18.030001"
       cy="32.872002"
       rx="9.6619997"
       ry="10.459"
       id="ellipse16" />
    <ellipse
       fill="#ffffff"
       cx="22.412001"
       cy="35.262001"
       rx="2.2909999"
       ry="2.6889999"
       id="ellipse18" />
  </g>
  <g
     transform="matrix(0.94217527,0,0,0.94217527,129.51589,27.101954)"
     id="g30">
    <path
       d="M 1.195,35.96 C 8.268,76.9 75.206,66.042 65.544,24.803 56.878,-12.252 -1.196,-1.992 1.195,35.96"
       fill="#ffffff"
       id="path22" />
    <path
       d="M 66.44,24.604 C 57.575,-13.547 -2.19,-3.088 0.2,36.059 v 0.1 C 3.486,55.483 20.72,65.345 39.745,62.157 48.41,60.663 56.18,56.48 61.26,50.304 66.838,43.43 68.83,34.565 66.44,24.604 Z M 59.767,49.108 C 54.985,54.886 47.714,58.87 39.446,60.265 21.416,63.253 5.279,53.989 2.092,35.86 -0.1,-0.996 56.28,-10.858 64.647,25.002 c 2.192,9.463 0.399,17.731 -4.88,24.106 z"
       id="path24" />
    <ellipse
       cx="17.631001"
       cy="34.167"
       rx="9.4630003"
       ry="10.459"
       id="ellipse26" />
    <ellipse
       fill="#ffffff"
       cx="22.014"
       cy="36.556999"
       rx="2.191"
       ry="2.6889999"
       id="ellipse28" />
  </g>
  <g
     id="g38"
     transform="matrix(0.94217527,0,0,0.94217527,7.3930185,10.050466)">
    <path
       d="m 112.785,83.002 c -7.87,0.697 -14.245,9.961 -10.16,17.332 5.378,9.762 17.431,-0.896 24.902,0.1 8.666,0.2 15.739,9.164 22.612,1.594 7.67,-8.368 -3.287,-16.536 -11.954,-20.122 z"
       fill="#f6d2a2"
       id="path32" />
    <path
       d="m 151.135,89.676 c -2.69,-3.387 -7.371,-6.475 -12.452,-8.567 l -0.199,-0.1 h -0.199 l -25.5,0.997 c -8.866,0.797 -15.24,11.057 -10.958,18.826 1.694,2.989 3.985,4.483 7.073,4.682 2.29,0.1 4.682,-0.398 8.367,-1.693 0.299,-0.1 0.697,-0.2 1.195,-0.399 4.981,-1.693 6.973,-2.191 8.965,-1.892 h 0.1 c 2.39,0 4.383,0.697 8.168,2.191 4.184,1.693 5.479,2.192 7.57,2.39 2.89,0.2 5.38,-0.796 7.67,-3.286 3.885,-4.284 3.686,-8.866 0.2,-13.149 z m -1.694,11.754 c -1.892,2.092 -3.785,2.79 -6.076,2.69 -1.793,-0.1 -2.988,-0.598 -6.973,-2.192 -3.984,-1.693 -6.175,-2.29 -8.765,-2.39 -2.49,-0.3 -4.582,0.199 -9.862,1.992 -0.498,0.199 -0.896,0.299 -1.195,0.398 -7.272,2.49 -10.758,2.291 -13.149,-2.092 -3.586,-6.474 1.893,-15.24 9.364,-15.937 l 25.201,-0.997 c 4.782,1.993 9.065,4.881 11.555,7.97 2.988,3.585 3.088,7.171 -0.1,10.558 z"
       fill="#231f20"
       id="path34" />
    <path
       d="m 140.178,78.719 c -3.088,-11.356 -28.987,-9.662 -28.39,3.885 1.295,10.06 31.378,7.37 28.39,-3.885 z"
       id="path36" />
  </g>
</svg>
